<svg xmlns="http://www.w3.org/2000/svg" xmlns:xlink="http://www.w3.org/1999/xlink" xmlns:svgjs="http://svgjs.com/svgjs" version="1.1" width="1604.6036682128906" height="1586.659973144531"><rect width="1604.6036682128906" height="1586.659973144531" fill="#ffffff"></rect><g transform="scale(5) translate(30, 30)"> <defs id="SvgjsDefs31189"></defs><g xmlns:name="main_text" id="SvgjsG31190" rel="mainfill" name="main_text" transform="translate(41.07036790847778,-89.6140090942383)" fill="#292929" style="fill: #292929"><path d="M7.86 181.74L7.86 240L27.95 240L27.95 236.51L11.70 236.51L11.70 181.74ZM74.94 240L79.13 240L54.94 180.00L30.39 240L34.59 240L42.36 220.87L67.16 220.87ZM43.76 217.38L54.85 189.78L65.77 217.38ZM88.21 181.74L88.21 240L92.06 240L92.06 181.74ZM111.01 240L116.16 193.19L139.05 242.10L161.93 193.19L167.08 240L170.92 240L164.29 179.74L139.05 233.62L113.80 179.74L107.17 240Z" fill="#292929" style="fill: #292929"></path></g><g xmlns:name="slogan_text" id="SvgjsG31191" rel="mainfill" name="slogan_text" transform="translate(87.74036655426025,-64.94399566650392)" fill="#292929" style="fill: #292929"><path d="M5.71 237.78L6.81 237.78L9.74 231.09L9.62 233.60L9.62 240L11.16 240L11.14 228.68L9.30 228.68L6.74 234.47L6.28 235.68L5.79 234.47L3.15 228.68L1.29 228.68L1.29 240L2.85 240L2.85 233.60L2.72 231.09ZM15.33 240L16.97 240L17.71 237.62L22.14 237.62L22.90 240L24.57 240L20.88 228.61L18.99 228.61ZM19.73 230.94L19.93 230.02L20.14 230.94L21.79 236.23L18.08 236.23ZM28.43 239.58C29.23 239.89 30.44 240.15 31.65 240.15C34.55 240.15 35.81 238.71 35.81 236.86C35.81 235.24 34.90 234.06 32.22 233.47C30.84 233.16 29.82 232.62 29.82 231.59C29.82 230.49 30.67 229.92 32.40 229.92C33.37 229.92 34.53 230.15 35.36 230.41L35.36 229.03C34.56 228.74 33.41 228.50 32.28 228.50C29.36 228.50 28.11 229.73 28.11 231.57C28.11 233.17 29.19 234.31 31.68 234.89C33.14 235.21 34.09 235.76 34.09 236.86C34.09 237.98 33.22 238.69 31.49 238.69C30.49 238.69 29.31 238.46 28.43 238.17ZM39.32 240L40.95 240L41.70 237.62L46.13 237.62L46.89 240L48.55 240L44.87 228.61L42.97 228.61ZM43.72 230.94L43.91 230.02L44.12 230.94L45.77 236.23L42.07 236.23ZM41.58 227.84L46.29 227.84L46.29 226.72L41.58 226.72ZM54.60 238.56L54.12 238.59L54.34 238.29L60.12 229.44L60.12 228.68L52.29 228.68L52.29 230.12L57.43 230.12L57.95 230.09L57.71 230.41L51.87 239.24L51.87 240L60.15 240L60.15 238.56ZM58.95 225.43L57.50 225.43L56.28 227.14L55.07 225.43L53.62 225.43L55.65 227.85L56.90 227.85ZM63.68 240L65.31 240L66.05 237.62L70.49 237.62L71.25 240L72.91 240L69.22 228.61L67.33 228.61ZM68.08 230.94L68.27 230.02L68.48 230.94L70.13 236.23L66.43 236.23ZM76.78 239.58C77.57 239.89 78.78 240.15 80.00 240.15C82.89 240.15 84.15 238.71 84.15 236.86C84.15 235.24 83.25 234.06 80.56 233.47C79.19 233.16 78.17 232.62 78.17 231.59C78.17 230.49 79.01 229.92 80.74 229.92C81.71 229.92 82.87 230.15 83.70 230.41L83.70 229.03C82.91 228.74 81.76 228.50 80.63 228.50C77.70 228.50 76.45 229.73 76.45 231.57C76.45 233.17 77.54 234.31 80.03 234.89C81.48 235.21 82.44 235.76 82.44 236.86C82.44 237.98 81.56 238.69 79.83 238.69C78.83 238.69 77.65 238.46 76.78 238.17Z" fill="#292929" style="fill: #292929"></path></g><g xmlns:name="outlineContainer_mainfill" id="SvgjsG31192" transform="translate(-1.1461540460586548,0) scale(2.4)" rel="mainfill" name="outline_container" fill="#222222" style="fill: #222222"><path d="M107.9 41.2A52.3 52.3 0 0 0 56.9 0h-.3a51.6 51.6 0 0 1 44.6 26.2 52.7 52.7 0 0 0-6.7-8.2A52 52 0 0 0 63 3a52.2 52.2 0 1 0-16.1 103.1A52.2 52.2 0 0 0 108 41.2zM93.1 91.5a51.5 51.5 0 0 1-40.7 14.9h-.1a51.4 51.4 0 0 1-31.9-14.7l.2.2a52 52 0 0 0 25.4 14A51.6 51.6 0 0 1 49.9 3.3a52 52 0 0 0-29.3 14.8l-.2.2A51.4 51.4 0 0 1 57.3 3.4a51.6 51.6 0 0 1 47.2 51.1v-.3A52.3 52.3 0 0 0 71.4 5.5a51.6 51.6 0 0 1 36.2 41.7c.1 1.4.2 2.9.2 4.4a51.6 51.6 0 0 1-103.2.3v.3a52.2 52.2 0 0 0 101.3 18 51.4 51.4 0 0 1-12.8 21.3z" fill="#222222" style="fill: #222222"></path></g> </g></svg>
